<svg version="1.1" id="Layer_1" xmlns="http://www.w3.org/2000/svg" xmlns:xlink="http://www.w3.org/1999/xlink" x="0px" y="0px"
	 width="100%" viewBox="0 0 1074 1074" enable-background="new 0 0 1074 1074" xml:space="preserve">
<path fill="#FEFEFE" opacity="1.000000" stroke="none" 
	d="
M594.000000,1075.000000 
	C396.022919,1075.000000 198.545837,1075.000000 1.034380,1075.000000 
	C1.034380,717.064453 1.034380,359.128937 1.034380,1.096699 
	C358.893982,1.096699 716.787964,1.096699 1074.841064,1.096699 
	C1074.841064,358.999939 1074.841064,716.999939 1074.841064,1075.000000 
	C914.795166,1075.000000 754.647583,1075.000000 594.000000,1075.000000 
M342.807465,508.211395 
	C368.585114,524.148621 394.362762,540.085815 420.984375,556.544800 
	C420.984375,540.675476 420.961151,526.187256 420.988434,511.699158 
	C421.099915,452.559143 421.200653,393.419037 421.368744,334.279144 
	C421.405151,321.464020 425.229309,310.280548 436.396393,302.769501 
	C450.209259,293.478912 464.094025,284.294556 477.985046,275.120850 
	C526.753296,242.913971 575.539001,210.733765 624.309082,178.529739 
	C626.063843,177.370987 627.723145,176.067612 629.402283,174.849564 
	C596.280273,124.778290 534.785461,101.632523 479.348389,111.646126 
	C422.336700,121.944130 382.129059,154.487808 357.690887,206.891815 
	C349.944214,223.503418 345.556793,240.973557 342.201447,259.014465 
	C341.147034,260.287048 339.372681,261.454803 339.169342,262.851318 
	C338.480164,267.584686 338.033875,272.401550 338.072876,277.181793 
	C338.135010,284.797516 338.932953,292.409882 338.919678,300.022827 
	C338.904877,308.515747 338.040710,317.008270 338.058960,325.499908 
	C338.103607,346.276337 338.585785,367.051941 338.617096,387.828278 
	C338.639801,402.883667 338.078552,417.939331 338.034271,432.995605 
	C337.964539,456.714661 338.048340,480.435120 338.336823,504.151703 
	C338.352295,505.423889 340.857208,506.665802 342.807465,508.211395 
M157.529266,492.944611 
	C172.065414,533.128174 196.734512,565.602051 232.939453,588.356445 
	C299.923492,630.455200 367.368378,671.820435 434.583344,713.552368 
	C436.980682,715.040833 438.752747,715.289978 441.321625,713.729858 
	C459.255585,702.838196 477.305145,692.136963 495.315369,681.370850 
	C503.216461,676.647827 511.112183,671.915833 520.360229,666.379883 
	C450.930969,624.505005 382.775299,583.131897 314.289642,542.312378 
	C300.230438,533.932678 294.126282,522.468018 294.138641,506.697937 
	C294.199646,428.712402 294.175446,350.726807 294.169922,272.741211 
	C294.169830,271.282104 294.030334,269.822998 293.955139,268.349274 
	C196.903198,278.083282 120.232010,383.086639 157.529266,492.944611 
M253.263763,819.248535 
	C280.995087,839.936462 311.776276,854.095032 346.012421,859.012085 
	C402.953796,867.189880 456.122314,857.141663 504.830750,824.871033 
	C552.705627,793.152771 601.387573,762.651794 649.781921,731.720825 
	C652.703003,729.853943 653.603394,727.783875 653.587646,724.432617 
	C653.460571,697.274536 653.517395,670.115540 653.518188,642.956848 
	C653.518250,640.513977 653.518250,638.071167 653.518250,634.843384 
	C650.627197,636.448730 648.560303,637.482056 646.606750,638.697632 
	C584.819885,677.144958 522.887817,715.362610 461.369263,754.234802 
	C444.608032,764.825867 429.896210,765.070435 412.814331,754.376953 
	C342.382812,710.285522 271.413422,667.053284 200.635483,623.515381 
	C199.011368,622.516296 197.313171,621.637573 195.447159,620.588928 
	C194.779114,622.066772 194.334747,622.949402 193.972961,623.864685 
	C182.650116,652.511902 179.941788,682.140137 185.618637,712.230652 
	C193.952774,756.406250 217.195618,791.561096 253.263763,819.248535 
M948.975830,668.433838 
	C960.085083,637.932129 962.317810,606.621826 955.497925,575.057129 
	C944.407837,523.728699 916.122131,484.025604 871.442627,456.432587 
	C843.668030,439.279663 815.339783,423.025635 787.354248,406.211243 
	C755.960388,387.349091 724.645996,368.353973 693.377258,349.285187 
	C689.962097,347.202454 687.407166,347.164795 684.034790,349.436462 
	C677.278442,353.987671 670.153564,357.988495 663.226929,362.290710 
	C642.300537,375.288422 621.396240,388.321655 599.891418,401.709595 
	C609.407715,407.669495 618.498047,413.463806 627.685364,419.099976 
	C685.587402,454.621399 743.395752,490.298279 801.511414,525.466980 
	C815.452576,533.903564 821.493652,545.456726 821.466553,561.294128 
	C821.346985,631.113525 821.412415,700.933167 821.410889,770.752747 
	C821.410828,772.859436 821.410828,774.966064 821.410828,777.096741 
	C822.426453,777.221313 822.917236,777.389954 823.369690,777.317993 
	C825.177307,777.030457 826.983765,776.716980 828.771484,776.325806 
	C844.992493,772.776245 860.235107,766.697815 874.520203,758.278748 
	C909.877686,737.440369 934.260803,707.413940 948.975830,668.433838 
M695.843689,572.499939 
	C695.848267,626.491760 695.893738,680.483582 695.828064,734.475281 
	C695.812134,747.559692 691.385437,758.651184 679.900818,765.965820 
	C651.951172,783.767395 624.055176,801.656372 595.942322,819.197327 
	C559.520813,841.922424 524.323547,866.609924 486.872742,888.193848 
	C487.685791,889.155090 488.896179,890.718750 490.241211,892.156555 
	C518.347839,922.200256 553.047729,938.610413 593.915955,942.254761 
	C691.045288,950.916138 773.096313,872.247620 776.982788,779.017761 
	C777.960632,755.560974 777.276550,732.033081 777.283752,708.537903 
	C777.298401,661.045471 777.265991,613.553101 777.241272,566.060669 
	C777.240051,563.646423 777.487549,561.538208 774.614502,559.821289 
	C751.658264,546.102905 728.859192,532.121582 706.001038,518.238647 
	C702.811401,516.301453 699.562561,514.461670 695.841858,512.284607 
	C695.841858,532.557312 695.841858,552.028564 695.843689,572.499939 
M840.055481,383.433411 
	C853.683716,391.264191 867.311951,399.094940 881.310547,407.138489 
	C882.242249,404.369934 882.993469,402.353668 883.602905,400.295380 
	C905.388977,326.709045 873.145386,247.685822 804.914673,212.266418 
	C752.883240,185.256287 700.444214,186.445602 649.694153,217.165619 
	C637.734375,224.405060 626.344421,232.584915 614.681335,240.315598 
	C565.559387,272.875153 516.446716,305.448792 467.268463,337.923096 
	C464.845642,339.523010 464.095459,341.238098 464.099426,344.008453 
	C464.141327,373.170135 464.060303,402.332062 464.032623,431.493896 
	C464.031158,433.054321 464.202728,434.614899 464.331665,436.826508 
	C472.863159,431.541016 480.784088,426.703552 488.636078,421.756714 
	C516.110168,404.447815 543.557556,387.096527 571.020569,369.770111 
	C603.815857,349.079529 636.641113,328.436340 669.402710,307.692627 
	C681.714661,299.897095 694.435120,299.253510 707.326538,305.597748 
	C714.908386,309.329010 722.125427,313.818695 729.418030,318.117432 
	C766.100952,339.740692 802.754761,361.413391 840.055481,383.433411 
M504.918640,606.573303 
	C522.454102,617.479065 539.954956,628.441772 557.591125,639.182129 
	C558.991577,640.034973 561.770264,640.092957 563.167236,639.266907 
	C592.119202,622.145691 620.997375,604.898132 649.750427,587.445374 
	C651.577148,586.336548 653.311035,583.361694 653.327393,581.241333 
	C653.563660,550.587097 653.559387,519.930115 653.364563,489.275360 
	C653.351929,487.282196 651.830200,484.488892 650.152100,483.436432 
	C621.088623,465.208832 591.870911,447.227264 562.756531,429.080292 
	C560.281860,427.537842 558.458740,427.546753 556.013916,429.037231 
	C526.298035,447.153534 496.497772,465.131744 466.843201,483.347260 
	C465.128906,484.400269 463.503815,487.180420 463.484283,489.172943 
	C463.198486,518.327271 463.144958,547.484558 463.242798,576.640381 
	C463.248566,578.359863 464.576019,580.736572 466.023804,581.685913 
	C478.692108,589.992859 491.527924,598.044434 504.918640,606.573303 
z"/>
<path fill="#010101" opacity="1.000000" stroke="none" 
	d="
M157.379623,492.580322 
	C120.232010,383.086639 196.903198,278.083282 293.955139,268.349274 
	C294.030334,269.822998 294.169830,271.282104 294.169922,272.741211 
	C294.175446,350.726807 294.199646,428.712402 294.138641,506.697937 
	C294.126282,522.468018 300.230438,533.932678 314.289642,542.312378 
	C382.775299,583.131897 450.930969,624.505005 520.360229,666.379883 
	C511.112183,671.915833 503.216461,676.647827 495.315369,681.370850 
	C477.305145,692.136963 459.255585,702.838196 441.321625,713.729858 
	C438.752747,715.289978 436.980682,715.040833 434.583344,713.552368 
	C367.368378,671.820435 299.923492,630.455200 232.939453,588.356445 
	C196.734512,565.602051 172.065414,533.128174 157.379623,492.580322 
z"/>
<path fill="#020201" opacity="1.000000" stroke="none" 
	d="
M252.975174,819.040466 
	C217.195618,791.561096 193.952774,756.406250 185.618637,712.230652 
	C179.941788,682.140137 182.650116,652.511902 193.972961,623.864685 
	C194.334747,622.949402 194.779114,622.066772 195.447159,620.588928 
	C197.313171,621.637573 199.011368,622.516296 200.635483,623.515381 
	C271.413422,667.053284 342.382812,710.285522 412.814331,754.376953 
	C429.896210,765.070435 444.608032,764.825867 461.369263,754.234802 
	C522.887817,715.362610 584.819885,677.144958 646.606750,638.697632 
	C648.560303,637.482056 650.627197,636.448730 653.518250,634.843384 
	C653.518250,638.071167 653.518250,640.513977 653.518188,642.956848 
	C653.517395,670.115540 653.460571,697.274536 653.587646,724.432617 
	C653.603394,727.783875 652.703003,729.853943 649.781921,731.720825 
	C601.387573,762.651794 552.705627,793.152771 504.830750,824.871033 
	C456.122314,857.141663 402.953796,867.189880 346.012421,859.012085 
	C311.776276,854.095032 280.995087,839.936462 252.975174,819.040466 
z"/>
<path fill="#010101" opacity="1.000000" stroke="none" 
	d="
M948.886597,668.814941 
	C934.260803,707.413940 909.877686,737.440369 874.520203,758.278748 
	C860.235107,766.697815 844.992493,772.776245 828.771484,776.325806 
	C826.983765,776.716980 825.177307,777.030457 823.369690,777.317993 
	C822.917236,777.389954 822.426453,777.221313 821.410828,777.096741 
	C821.410828,774.966064 821.410828,772.859436 821.410889,770.752747 
	C821.412415,700.933167 821.346985,631.113525 821.466553,561.294128 
	C821.493652,545.456726 815.452576,533.903564 801.511414,525.466980 
	C743.395752,490.298279 685.587402,454.621399 627.685364,419.099976 
	C618.498047,413.463806 609.407715,407.669495 599.891418,401.709595 
	C621.396240,388.321655 642.300537,375.288422 663.226929,362.290710 
	C670.153564,357.988495 677.278442,353.987671 684.034790,349.436462 
	C687.407166,347.164795 689.962097,347.202454 693.377258,349.285187 
	C724.645996,368.353973 755.960388,387.349091 787.354248,406.211243 
	C815.339783,423.025635 843.668030,439.279663 871.442627,456.432587 
	C916.122131,484.025604 944.407837,523.728699 955.497925,575.057129 
	C962.317810,606.621826 960.085083,637.932129 948.886597,668.814941 
z"/>
<path fill="#010101" opacity="1.000000" stroke="none" 
	d="
M342.980835,258.999298 
	C345.556793,240.973557 349.944214,223.503418 357.690887,206.891815 
	C382.129059,154.487808 422.336700,121.944130 479.348389,111.646126 
	C534.785461,101.632523 596.280273,124.778290 629.402283,174.849564 
	C627.723145,176.067612 626.063843,177.370987 624.309082,178.529739 
	C575.539001,210.733765 526.753296,242.913971 477.985046,275.120850 
	C464.094025,284.294556 450.209259,293.478912 436.396393,302.769501 
	C425.229309,310.280548 421.405151,321.464020 421.368744,334.279144 
	C421.200653,393.419037 421.099915,452.559143 420.988434,511.699158 
	C420.961151,526.187256 420.984375,540.675476 420.984375,556.544800 
	C394.362762,540.085815 368.585114,524.148621 342.557861,507.605408 
	C342.532440,424.332733 342.756653,341.666016 342.980835,258.999298 
z"/>
<path fill="#010101" opacity="1.000000" stroke="none" 
	d="
M695.842773,571.999878 
	C695.841858,552.028564 695.841858,532.557312 695.841858,512.284607 
	C699.562561,514.461670 702.811401,516.301453 706.001038,518.238647 
	C728.859192,532.121582 751.658264,546.102905 774.614502,559.821289 
	C777.487549,561.538208 777.240051,563.646423 777.241272,566.060669 
	C777.265991,613.553101 777.298401,661.045471 777.283752,708.537903 
	C777.276550,732.033081 777.960632,755.560974 776.982788,779.017761 
	C773.096313,872.247620 691.045288,950.916138 593.915955,942.254761 
	C553.047729,938.610413 518.347839,922.200256 490.241211,892.156555 
	C488.896179,890.718750 487.685791,889.155090 486.872742,888.193848 
	C524.323547,866.609924 559.520813,841.922424 595.942322,819.197327 
	C624.055176,801.656372 651.951172,783.767395 679.900818,765.965820 
	C691.385437,758.651184 695.812134,747.559692 695.828064,734.475281 
	C695.893738,680.483582 695.848267,626.491760 695.842773,571.999878 
z"/>
<path fill="#020202" opacity="1.000000" stroke="none" 
	d="
M839.737122,383.251068 
	C802.754761,361.413391 766.100952,339.740692 729.418030,318.117432 
	C722.125427,313.818695 714.908386,309.329010 707.326538,305.597748 
	C694.435120,299.253510 681.714661,299.897095 669.402710,307.692627 
	C636.641113,328.436340 603.815857,349.079529 571.020569,369.770111 
	C543.557556,387.096527 516.110168,404.447815 488.636078,421.756714 
	C480.784088,426.703552 472.863159,431.541016 464.331665,436.826508 
	C464.202728,434.614899 464.031158,433.054321 464.032623,431.493896 
	C464.060303,402.332062 464.141327,373.170135 464.099426,344.008453 
	C464.095459,341.238098 464.845642,339.523010 467.268463,337.923096 
	C516.446716,305.448792 565.559387,272.875153 614.681335,240.315598 
	C626.344421,232.584915 637.734375,224.405060 649.694153,217.165619 
	C700.444214,186.445602 752.883240,185.256287 804.914673,212.266418 
	C873.145386,247.685822 905.388977,326.709045 883.602905,400.295380 
	C882.993469,402.353668 882.242249,404.369934 881.310547,407.138489 
	C867.311951,399.094940 853.683716,391.264191 839.737122,383.251068 
z"/>
<path fill="#020101" opacity="1.000000" stroke="none" 
	d="
M504.616333,606.372498 
	C491.527924,598.044434 478.692108,589.992859 466.023804,581.685913 
	C464.576019,580.736572 463.248566,578.359863 463.242798,576.640381 
	C463.144958,547.484558 463.198486,518.327271 463.484283,489.172943 
	C463.503815,487.180420 465.128906,484.400269 466.843201,483.347260 
	C496.497772,465.131744 526.298035,447.153534 556.013916,429.037231 
	C558.458740,427.546753 560.281860,427.537842 562.756531,429.080292 
	C591.870911,447.227264 621.088623,465.208832 650.152100,483.436432 
	C651.830200,484.488892 653.351929,487.282196 653.364563,489.275360 
	C653.559387,519.930115 653.563660,550.587097 653.327393,581.241333 
	C653.311035,583.361694 651.577148,586.336548 649.750427,587.445374 
	C620.997375,604.898132 592.119202,622.145691 563.167236,639.266907 
	C561.770264,640.092957 558.991577,640.034973 557.591125,639.182129 
	C539.954956,628.441772 522.454102,617.479065 504.616333,606.372498 
z"/>
<path fill="#F7F7F7" opacity="1.000000" stroke="none" 
	d="
M342.591125,259.006897 
	C342.756653,341.666016 342.532440,424.332733 342.255768,507.460632 
	C340.857208,506.665802 338.352295,505.423889 338.336823,504.151703 
	C338.048340,480.435120 337.964539,456.714661 338.034271,432.995605 
	C338.078552,417.939331 338.639801,402.883667 338.617096,387.828278 
	C338.585785,367.051941 338.103607,346.276337 338.058960,325.499908 
	C338.040710,317.008270 338.904877,308.515747 338.919678,300.022827 
	C338.932953,292.409882 338.135010,284.797516 338.072876,277.181793 
	C338.033875,272.401550 338.480164,267.584686 339.169342,262.851318 
	C339.372681,261.454803 341.147034,260.287048 342.591125,259.006897 
z"/>
</svg>